<?xml version="1.0" standalone="no"?>
<!DOCTYPE svg PUBLIC "-//W3C//DTD SVG 20010904//EN"
 "http://www.w3.org/TR/2001/REC-SVG-20010904/DTD/svg10.dtd">
<svg version="1.0" xmlns="http://www.w3.org/2000/svg"
 width="985.000000pt" height="985.000000pt" viewBox="0 0 985.000000 985.000000"
 preserveAspectRatio="xMidYMid meet">
<metadata>
Created by potrace 1.14, written by Peter Selinger 2001-2017
</metadata>
<g transform="translate(0.000000,985.000000) scale(0.100000,-0.100000)"
fill="#000000" stroke="none">
<path d="M4785 9759 c-82 -49 -157 -92 -165 -96 -19 -9 -176 -100 -210 -122
-14 -8 -27 -16 -30 -16 -3 0 -16 -8 -30 -17 -41 -26 -272 -158 -277 -158 -3 0
-17 -8 -31 -19 -25 -17 -41 -27 -134 -79 -71 -40 -164 -93 -178 -102 -17 -12
-293 -170 -360 -208 -25 -13 -49 -28 -55 -32 -5 -4 -30 -19 -55 -32 -55 -31
-58 -32 -359 -207 -134 -77 -245 -141 -247 -141 -1 0 -49 -28 -106 -61 -56
-34 -119 -71 -138 -82 -19 -11 -62 -35 -95 -54 -33 -19 -67 -38 -75 -43 -12
-8 -655 -380 -798 -461 -33 -20 -74 -43 -139 -80 -21 -12 -58 -33 -83 -47 -25
-14 -57 -33 -72 -43 -14 -11 -29 -19 -33 -19 -3 0 -31 -16 -61 -35 -30 -19
-56 -35 -58 -35 -4 0 -124 -68 -247 -141 l-66 -39 0 -2418 c0 -2336 0 -2419
-18 -2446 -19 -28 -19 -28 6 -47 13 -10 161 -98 329 -195 168 -97 316 -184
330 -193 14 -8 34 -21 45 -27 43 -23 622 -359 655 -379 19 -12 62 -37 95 -55
54 -30 249 -144 988 -576 126 -74 230 -134 232 -134 1 0 34 -19 71 -42 58 -34
477 -280 579 -338 17 -10 71 -41 120 -70 50 -29 104 -60 120 -70 17 -9 176
-102 354 -206 178 -104 331 -189 340 -189 9 0 81 38 161 84 187 108 203 117
275 158 33 19 67 38 75 43 8 5 53 32 100 58 47 27 247 143 445 257 198 115
374 216 390 225 17 10 86 50 155 90 69 40 145 84 169 98 25 13 173 99 330 190
157 91 301 173 319 184 18 10 103 59 187 108 84 49 170 99 189 110 29 16 310
178 451 260 96 56 166 96 215 123 30 16 67 38 82 49 14 10 28 18 31 18 2 0 56
30 118 67 63 37 141 82 174 100 33 19 83 47 110 64 28 16 57 32 65 36 8 3 22
11 30 18 8 7 47 29 85 50 39 21 82 46 97 56 l26 19 -1 2461 -2 2461 -144 84
c-79 46 -144 84 -146 84 -1 0 -54 30 -116 66 -63 37 -303 176 -534 309 -231
133 -436 252 -455 264 -19 11 -42 24 -50 28 -8 4 -59 33 -113 65 -53 32 -100
58 -102 58 -3 0 -22 11 -43 24 -72 46 -232 137 -236 134 -2 -2 -12 4 -22 13
-11 9 -64 42 -119 73 -55 31 -107 61 -115 66 -43 25 -457 264 -555 320 -16 9
-160 93 -320 185 -159 92 -306 176 -325 187 -19 11 -66 39 -105 62 -38 22 -81
47 -95 53 -14 7 -41 22 -60 34 -19 12 -125 73 -235 136 -110 64 -217 126 -237
139 -21 13 -40 24 -43 24 -3 0 -23 11 -45 25 -22 14 -43 25 -47 24 -5 0 -75
-41 -158 -90z"/>
</g>
</svg>
